<?xml version="1.0" encoding="utf-8"?>
<!-- Generator: Adobe Illustrator 24.0.0, SVG Export Plug-In . SVG Version: 6.00 Build 0)  -->
<svg version="1.1" id="Layer_1" xmlns="http://www.w3.org/2000/svg" xmlns:xlink="http://www.w3.org/1999/xlink" x="0px" y="0px"
	 viewBox="0 0 240 240" style="enable-background:new 0 0 240 240;" xml:space="preserve">
<style type="text/css">
	.st0{opacity:0.8;}
	.st1{opacity:0.8;clip-path:url(#SVGID_2_);fill-rule:evenodd;clip-rule:evenodd;fill:#FFFFFF;}
</style>
<g class="st0">
	<defs>
		<path id="SVGID_1_" class="st0" d="M240,120c0,66.28-53.73,120-120,120S0,186.27,0,120C0,53.73,53.73,0,120,0S240,53.73,240,120z"
			/>
	</defs>
	<use xlink:href="#SVGID_1_"  style="overflow:visible;opacity:0.3;fill:#383B3F;"/>
	<clipPath id="SVGID_2_">
		<use xlink:href="#SVGID_1_"  style="overflow:visible;opacity:0.3;"/>
	</clipPath>
	<path class="st1" d="M254.16,242.08c-1.69-4.42-4.05-8.49-6.94-12.18c-4.61-5.89-10.68-10.02-17.38-13.19
		c-1.94-0.92-3.84-2.03-5.98-2.52c-6.67-1.52-13.28-3.3-19.84-5.27c-2.34,0.14-4.35-0.69-6.13-2.14c-4.87-1.99-9.97-3.42-14.51-6.17
		c-1.59-0.25-3.11-0.64-4.2-1.95c-0.83-0.22-1.52-0.77-2.35-1c-2.37-0.59-4.34-1.79-5.85-3.72c-0.91-0.6-1.87-1.13-2.73-1.81
		c-1.09-0.58-1.75-1.32-2.05-2.65c-0.4-1.72-0.91-3.43-1.38-5.13c-0.62-1.71-0.65-3.53-1.02-5.29c-0.21-0.98-0.45-1.84-1.54-2.14
		c-1.05-0.53-2.06-0.02-3.05,0.19c-2.02,0.44-3.13-0.2-3.45-2.34c-0.23-1.54-0.65-3.1-0.73-4.62c-0.16-3.4-0.68-7.01,2.59-9.52
		c3.81-7.72,6.62-15.8,8.91-24.1c0.52-1.86,1.39-3.44,3.88-3.51c1.48-0.04,2.71-1.09,3.19-2.7c1.46-4.87,2.86-9.76,5.11-14.36
		c0.69-3.35,2.35-6.46,2.5-9.94c-0.03-0.7,0.16-1.39,0.09-2.09c-0.08-0.28-0.21-0.52-0.4-0.74c-0.13-0.08-0.26-0.17-0.37-0.28
		c0.07-1.49,0.18-2.97,0.13-4.45c-0.08-2.09-1.07-3.81-3.1-4.34c-1.87-0.49-2.22-1.52-2.11-3.19c0.43-6.55,0.8-13.1,1.19-19.65
		c0.08-0.22,0.05-0.43-0.07-0.61c0.07-0.11,0.08-0.24,0-0.39c-0.19-1.99-0.36-3.97-0.59-5.95c-0.53-4.74-1.04-9.53-3.53-13.73
		c-4.79-8.11-11.45-14.33-19.83-18.59c-7.08-3.61-14.78-5.4-22.53-6.95C114,21.84,99.67,25.43,87.17,36.11
		c0.05,0.1,0.08,0.22,0.1,0.34l0,0l0,0c-1.42,0.9-2.53,2.1-3.31,3.58c-1.5,2.8-3.68,5.07-5.94,7.19c-4.18,3.91-6.46,8.43-5.78,14.19
		c-0.15,0.07-0.31,0.15-0.47,0.26c-0.2,0.22-0.38,0.46-0.51,0.73c-1.01,4.68,0.26,9.33,0.24,13.99c1.15,3.95,1.17,8.02,1.51,12.06
		c0.18,2.22-0.44,3.72-2.58,4.48c-2.73,0.96-3.82,3.16-4.18,5.79c-0.37,2.76-0.46,5.5,0.3,8.25c1.06,3.85,2.18,7.68,3.42,11.47
		c1.97,3.2,3.17,6.78,3.88,10.38c0.46,2.39,1.47,3.76,3.55,4.53c1.72,0.63,2.66,1.8,3.04,3.56c0.61,2.8,1.66,5.47,2.51,8.2
		c1,2.21,2.63,4.18,2.65,6.77c0.03,0.27,0.08,0.53,0.19,0.78c4.74,7.55,7.28,15.48,4.17,24.37c-1.62,1.73-3.21-0.08-4.82-0.11
		c-1.61-0.03-2.97-0.18-3.36,1.8c-1.23,3.86-1.89,7.87-3.11,11.74c-0.66,2.11-1.73,3.65-3.74,4.66c-4.41,2.22-8.88,4.26-13.62,5.6
		c-3.16,2.24-6.98,2.93-10.51,4.23c-6.88,2.54-14.09,3.98-21.17,5.88c-8.67,2.32-17.06,5.21-24.31,10.75
		c-3.69,4.52-8.54,8.2-10.35,14.11c0,2.51,0.15,5.04-0.05,7.55c-0.14,1.95,0.4,2.41,2.38,2.41c85.48-0.06,170.96-0.05,256.44-0.05
		C254.98,244.56,254.66,243.4,254.16,242.08z"/>
</g>
</svg>
